<svg xmlns="http://www.w3.org/2000/svg" viewBox="0 0 404 420" fill="none">
  <path fill="#E17726" stroke="#E17726" stroke-linecap="round" stroke-linejoin="round" stroke-width=".25" d="m382.44 1.284-148.5 109.87 27.62-64.99L382.44 1.284Z"/>
  <path fill="#E27625" stroke="#E27625" stroke-linecap="round" stroke-linejoin="round" stroke-width=".25" d="m21.45 1.284 147.33 110.82-26.45-65.94L21.45 1.284ZM327.63 297.74l-46.48 71.11 99.52 27.39 28.55-96.89-81.59-1.61ZM.89 299.35l28.45 96.89 99.42-27.39-46.37-71.11-81.5 1.61Z"/>
  <path fill="#E27625" stroke="#E27625" stroke-linecap="round" stroke-linejoin="round" stroke-width=".25" d="m123.42 185.1-23.54 35.6 83.93 3.86-.89-90.29-59.5 50.83ZM280.47 185.1l-60.29-51.78-.4 91.28 83.93-3.86-23.24-35.64ZM128.76 368.85l50.83-24.6-43.71-34.08-7.12 58.68ZM224.31 344.25l50.73 24.6-7.02-58.68-43.71 34.08Z"/>
  <path fill="#D5BFB2" stroke="#D5BFB2" stroke-linecap="round" stroke-linejoin="round" stroke-width=".25" d="m275.04 368.85-50.73-24.6 4.12 33.01-.44 14.01 47.05-22.42ZM128.76 368.85l47.15 22.42-.34-14.01 4.02-33.01-50.83 24.6Z"/>
  <path fill="#233447" stroke="#233447" stroke-linecap="round" stroke-linejoin="round" stroke-width=".25" d="m177.13 277.86-42.03-12.35 29.67-13.64 12.36 25.99ZM226.77 277.86l12.36-25.99 29.77 13.64-42.13 12.35Z"/>
  <path fill="#CC6228" stroke="#CC6228" stroke-linecap="round" stroke-linejoin="round" stroke-width=".25" d="m128.76 368.85 7.41-61.24-53.84.44 46.43 60.8ZM267.63 307.61l7.41 61.24 46.43-60.8-53.84-.44ZM304.01 220.7l-83.93 3.86 7.8 43.12 12.36-25.99 29.77 13.64L304.01 220.7ZM135.1 255.33l29.67-13.64 12.36 25.99 7.8-43.12-83.93-3.86 34.1 34.63Z"/>
  <path fill="#E27525" stroke="#E27525" stroke-linecap="round" stroke-linejoin="round" stroke-width=".25" d="m100.99 220.7 35.18 68.57-.98-34.14-34.2-34.43ZM269.01 255.13l-1.08 34.14 35.18-68.57-34.1 34.43ZM184.93 224.56l-7.8 43.12 9.86 50.83 2.21-66.93-4.27-27.02ZM219.07 224.56l-4.17 26.92 2.11 67.03 9.86-50.83-7.8-43.12Z"/>
  <path fill="#F5841F" stroke="#F5841F" stroke-linecap="round" stroke-linejoin="round" stroke-width=".25" d="m226.87 277.68-9.86 50.83 7.12 4.91 43.71-34.08 1.08-34.14-42.05 12.48ZM135.1 255.33l.98 34.14 43.71 34.08 7.12-4.91-9.86-50.83-41.95-12.48Z"/>
  <path fill="#C0AC9D" stroke="#C0AC9D" stroke-linecap="round" stroke-linejoin="round" stroke-width=".25" d="m227.31 390.27.44-14.01-3.77-3.22h-44.05l-3.67 3.22.34 14.01-47.15-22.42 16.49 13.5 33.42 23.14h44.94l33.52-23.14 16.39-13.5-47.05 22.42Z"/>
  <path fill="#161616" stroke="#161616" stroke-linecap="round" stroke-linejoin="round" stroke-width=".25" d="m224.31 344.25-7.12-4.91h-30.48l-7.12 4.91-4.02 33.01 3.67-3.22h44.05l3.77 3.22-2.75-33.01Z"/>
  <path fill="#763E1A" stroke="#763E1A" stroke-linecap="round" stroke-linejoin="round" stroke-width=".25" d="m387.3 149.61 12.95-62.93L382.44 1.284l-158.15 117-61.57 50.83 83.93 3.86 118.87-27.62 2.6-30.48-11.18 8.2-17.7 12.36 2.6 23.83-19.91 15.25 2.6 20.33-16.39 11.28 3.16 18.42ZM3.65 86.68l13.05 62.93-8.29 6.15 17.4 13.5-15.78 12.35 17.4 16.39-13.05 11.28 17.4 20.33-10.84 7.51 118.87 27.62 83.93-3.86L162.17 169l-158.15-117-0.37 34.68Z"/>
  <path fill="#F5841F" stroke="#F5841F" stroke-linecap="round" stroke-linejoin="round" stroke-width=".25" d="m368.49 145.46-118.87 27.62 35.18 68.57 81.59-1.61 34.1-34.63-8.29-6.15 17.4-13.5-15.78-12.35 17.4-16.39-13.05-11.28 17.4-20.33-47.08 20.05ZM154.28 173.08 35.41 145.46l-47.08-20.05 17.4 20.33-13.05 11.28 17.4 16.39-15.78 12.35 17.4 13.5-8.29 6.15 34.1 34.63 81.59 1.61 35.18-68.57Z"/>
  <path fill="#F5841F" stroke="#F5841F" stroke-linecap="round" stroke-linejoin="round" stroke-width=".25" d="m304.01 220.7-81.59 1.61-3.77 26.92-4.17-26.92-81.59-1.61-34.1 34.63 53.84.44 43.71 34.08h44.94l43.71-34.08 53.84-.44-34.82-34.63Z"/>
</svg> 