<svg width="300" height="185" viewBox="0 0 300 185" fill="none" xmlns="http://www.w3.org/2000/svg">
  <path d="M61.4385 36.2229C116.663 -12.0743 206.337 -12.0743 261.562 36.2229L268.379 42.1741C271.031 44.4753 271.031 48.7155 268.379 51.0167L246.644 70.1085C245.318 71.2591 243.183 71.2591 241.857 70.1085L232.327 61.74C192.917 27.5953 130.083 27.5953 90.6733 61.74L80.4008 70.7243C79.0749 71.8749 76.9397 71.8749 75.6138 70.7243L53.8788 51.6325C51.2267 49.3314 51.2267 45.0911 53.8788 42.7899L61.4385 36.2229ZM280.765 53.4031L299.647 70.0182C302.299 72.3194 302.299 76.5596 299.647 78.8608L221.043 147.987C218.391 150.288 214.121 150.288 211.469 147.987L153.286 97.4958C152.623 96.9204 151.577 96.9204 150.914 97.4958L92.7309 147.987C90.0788 150.288 85.8087 150.288 83.1566 147.987L4.35288 78.8608C1.70077 76.5596 1.70077 72.3194 4.35288 70.0182L23.235 53.4031C25.8871 51.1019 30.1572 51.1019 32.8093 53.4031L91.0029 103.894C91.6661 104.47 92.7119 104.47 93.3751 103.894L151.558 53.4031C154.21 51.1019 158.48 51.1019 161.132 53.4031L219.315 103.894C219.978 104.47 221.024 104.47 221.687 103.894L279.881 53.4031C282.142 51.1019 286.412 51.1019 289.064 53.4031H280.765Z" fill="#3B99FC"/>
</svg> 